<?xml version="1.0" encoding="UTF-8" standalone="no" ?>
<!DOCTYPE svg PUBLIC "-//W3C//DTD SVG 1.1//EN" "http://www.w3.org/Graphics/SVG/1.1/DTD/svg11.dtd">
<svg xmlns="http://www.w3.org/2000/svg" xmlns:xlink="http://www.w3.org/1999/xlink" version="1.1" width="1080" height="1000" viewBox="0 11.43 1080 1000" xml:space="preserve">
<desc>Created with Fabric.js 5.2.4</desc>
<defs>
</defs>
<g transform="matrix(0 0 0 0 0 0)" id="2c67f22b-44dc-4a1b-b820-d6caed51e96b"  >
</g>
<g transform="matrix(1 0 0 1 540 500)" id="2f3c506c-d65b-4b6e-9d55-81417b59b8f0"  >
<rect style="stroke: none; stroke-width: 1; stroke-dasharray: none; stroke-linecap: butt; stroke-dashoffset: 0; stroke-linejoin: miter; stroke-miterlimit: 4; fill: rgb(255,255,255); fill-rule: nonzero; opacity: 1; visibility: hidden;" vector-effect="non-scaling-stroke"  x="-540" y="-500" rx="0" ry="0" width="1080" height="1000" />
</g>
<g transform="matrix(0.93 0 0 0.93 540 570.9)"  >
<g style="" vector-effect="non-scaling-stroke"   >
		<g transform="matrix(1.33 0 0 1.33 7.47 -63.9)"  >
<path style="stroke: none; stroke-width: 1; stroke-dasharray: none; stroke-linecap: butt; stroke-dashoffset: 0; stroke-linejoin: miter; stroke-miterlimit: 4; fill: rgb(53,79,82); fill-rule: nonzero; opacity: 1;" vector-effect="non-scaling-stroke"  transform=" translate(-350.03, -280)" d="M 309.04 187.36 C 312.9775 183.4225 318.14160000000004 181.4538 323.31 181.4538 C 328.4702 181.4538 333.634 183.4226 337.58 187.36 C 341.5175 191.2975 343.4862 196.4616 343.4862 201.63000000000002 C 343.4862 205.17690000000002 342.56042 208.7238 340.705 211.86800000000002 L 350.3573 222.99300000000002 L 360.00960000000003 211.86800000000002 C 358.1541 208.72350000000003 357.2284 205.17660000000004 357.2284 201.63000000000002 C 357.2284 196.46980000000002 359.1972 191.306 363.13460000000003 187.36 C 367.07210000000003 183.4225 372.23620000000005 181.4538 377.4046 181.4538 C 382.5648 181.4538 387.72860000000003 183.4226 391.6746 187.36 C 395.6121 191.2975 397.5808 196.4616 397.5808 201.63000000000002 C 397.5808 206.79020000000003 395.612 211.95400000000004 391.6746 215.90000000000003 C 387.7371 219.83750000000003 382.573 221.80620000000005 377.4046 221.80620000000005 C 373.8577 221.80620000000005 370.31080000000003 220.88042000000004 367.1666 219.02500000000003 L 356.0416 228.67730000000003 L 367.1666 238.32960000000003 C 370.3111 236.47410000000002 373.858 235.54840000000002 377.4046 235.54840000000002 C 382.5648 235.54840000000002 387.72860000000003 237.5172 391.6746 241.45460000000003 C 395.6121 245.39210000000003 397.5808 250.55620000000002 397.5808 255.72460000000004 C 397.5808 260.88480000000004 395.612 266.0486 391.6746 269.99460000000005 C 387.7371 273.93210000000005 382.573 275.90080000000006 377.4046 275.90080000000006 C 372.24440000000004 275.90080000000006 367.0806 273.9320000000001 363.13460000000003 269.99460000000005 C 359.19710000000003 266.05710000000005 357.2284 260.89300000000003 357.2284 255.72460000000004 C 357.2284 252.17770000000004 358.15418 248.63080000000005 360.00960000000003 245.48660000000004 L 350.3573 234.36160000000004 L 340.705 245.48660000000004 C 342.5605 248.63110000000003 343.4862 252.17800000000003 343.4862 255.72460000000004 C 343.4862 260.88480000000004 341.5174 266.0486 337.58 269.99460000000005 C 333.6425 273.93210000000005 328.47839999999997 275.90080000000006 323.31 275.90080000000006 C 318.1498 275.90080000000006 312.986 273.9320000000001 309.04 269.99460000000005 C 305.1025 266.05710000000005 303.1338 260.89300000000003 303.1338 255.72460000000004 C 303.1338 250.56440000000003 305.1026 245.40060000000003 309.04 241.45460000000003 C 312.9775 237.51710000000003 318.14160000000004 235.54840000000002 323.31 235.54840000000002 C 326.8569 235.54840000000002 330.4038 236.47418000000002 333.548 238.32960000000003 L 344.673 228.67730000000003 L 333.548 219.02500000000003 C 330.4035 220.88050000000004 326.8566 221.80620000000005 323.31 221.80620000000005 C 318.1498 221.80620000000005 312.986 219.83740000000006 309.04 215.90000000000003 C 305.1025 211.96250000000003 303.1338 206.79840000000004 303.1338 201.63000000000002 C 303.1338 196.46980000000002 305.1026 191.306 309.04 187.36 z M 213.88800000000003 358.17 C 214.45831000000004 357.0138 215.84890000000004 356.545 217.00520000000003 357.1153 C 218.16150000000002 357.68559999999997 218.63020000000003 359.0762 218.05990000000003 360.2325 L 209.05210000000002 378.5255 C 208.48179000000002 379.68170000000003 207.09120000000001 380.1505 205.93490000000003 379.58020000000005 C 204.77870000000001 379.00989000000004 204.30990000000003 377.61930000000007 204.88020000000003 376.463 z M 481.208 360.2325 C 480.63769 359.0763 481.11425 357.6856 482.26270000000005 357.1153 C 483.41890000000006 356.54499 484.80960000000005 357.02155 485.3799000000001 358.17 L 494.38770000000005 376.463 C 494.95801000000006 377.61920000000003 494.48145000000005 379.0099 493.333 379.58020000000005 C 492.1768 380.15051000000005 490.78610000000003 379.67395000000005 490.2158 378.5255 z M 130.61800000000005 160.22250000000003 C 130.70393700000005 158.93340000000003 131.81330000000005 157.96470000000002 133.10240000000005 158.05840000000003 C 134.39150000000004 158.14433800000003 135.36020000000005 159.25370000000004 135.26650000000004 160.54280000000003 L 133.88370000000003 180.8908 C 133.79776200000003 182.1799 132.68840000000003 183.14860000000002 131.39930000000004 183.0549 C 130.11020000000005 182.968963 129.14150000000004 181.8596 129.23520000000005 180.5705 z M 563.568 160.53109000000003 C 563.4820619999999 159.24199000000004 564.45472 158.14049000000003 565.7321 158.04669000000004 C 567.0211999999999 157.96075300000004 568.1226999999999 158.93341000000004 568.2165 160.21079000000003 L 569.5993 180.55879000000004 C 569.6852369999999 181.84789000000004 568.71258 182.94939000000005 567.4352 183.04319000000004 C 566.1461 183.12912800000004 565.0446000000001 182.15647000000004 564.9508 180.87909000000005 z M 125.32799999999997 204.95709000000005 C 121.76159999999997 201.72659000000004 118.89829999999998 198.12509000000006 116.71469999999998 194.29709000000005 C 112.32799999999997 186.61739000000006 110.69519999999999 178.04709000000005 111.53499999999998 169.69509000000005 C 112.36702999999999 161.37869000000006 115.65219999999998 153.27709000000004 121.09359999999998 146.48409000000004 C 124.62089999999998 142.08959000000004 129.0545 138.23409000000004 134.3276 135.22609000000003 C 135.7456 134.42531000000002 137.46429999999998 134.64797000000002 138.6206 135.66359000000003 L 138.6206 135.65577800000003 C 143.23 139.71437800000004 146.8706 144.48387800000003 149.5036 149.62877800000004 C 153.4684 157.38657800000004 155.113 165.96077800000003 154.31220000000002 174.25777800000003 C 153.51142000000002 182.62887800000004 150.2536 190.69577800000002 144.41770000000002 197.31277800000004 C 141.27320000000003 200.88697800000003 137.36300000000003 204.05107800000005 132.67570000000003 206.60967800000003 C 132.32023000000004 211.94947800000003 132.09758000000002 217.19567800000004 132.00383000000002 222.34367800000004 C 133.21863000000002 220.28897800000004 134.64443000000003 218.36707800000005 136.24213000000003 216.60537800000003 C 140.99213000000003 211.35927800000002 147.30113000000003 207.48817800000003 154.42213000000004 205.53537800000004 C 159.14483000000004 204.24627800000005 164.20333000000005 203.80877800000005 169.38313000000005 204.37917800000002 L 169.38313000000005 204.38699000000003 C 170.92223000000004 204.55496000000002 172.25813000000005 205.68389000000002 172.60193000000004 207.28149000000002 C 173.72303000000005 212.28539 173.84413000000004 217.25809 173.09802000000005 221.97249000000002 C 171.94962000000004 229.28109000000003 168.75032000000004 235.96449 164.01602000000005 241.23849 C 159.25432000000006 246.53149000000002 152.94602000000006 250.41429000000002 145.59002000000007 252.05449000000002 C 141.64082000000008 252.94121 137.40642000000005 253.17559000000003 132.97302000000008 252.63261000000003 C 133.60583000000008 260.16381 134.5316200000001 267.46461000000005 135.73472000000007 274.53861 C 136.81672000000006 271.54251 138.34022000000007 268.73391 140.22302000000008 266.19481 C 144.15272000000007 260.88231 149.66052000000008 256.69481 156.09802000000008 254.22981000000001 C 160.24252000000007 252.64391 164.78552000000008 251.77671 169.56702000000007 251.79231000000001 C 171.23892000000006 251.66340000000002 172.84432000000007 252.67903 173.39512000000008 254.35091000000003 C 174.89902000000006 258.88611000000003 175.46542000000008 263.49931000000004 175.20762000000008 267.95991000000004 C 174.81700000000006 274.83881 172.4537200000001 281.35491 168.5435200000001 286.68991000000005 C 164.6060200000001 292.06491000000005 159.09042000000008 296.25631000000004 152.4265200000001 298.46691000000004 C 149.0671200000001 299.57631000000003 145.4070200000001 300.18571000000003 141.5165200000001 300.17391000000003 C 144.2157200000001 309.66611000000006 147.4227200000001 318.67391000000003 151.1024200000001 327.18591000000004 C 152.3993200000001 321.22111 155.2352200000001 315.86591000000004 159.1766200000001 311.45191000000005 C 163.9071200000001 306.1511100000001 170.2276200000001 302.20191000000005 177.3756200000001 300.18591000000004 C 182.05142000000012 298.86951000000005 187.0904200000001 298.38511000000005 192.2626200000001 298.90861 C 193.86812000000012 299.01017 195.27822000000012 300.15081000000004 195.6493200000001 301.79141 C 196.8173200000001 306.82261 196.9735200000001 311.81441 196.2665100000001 316.55741 C 195.1727100000001 323.88551 192.0009100000001 330.63141 187.2782100000001 335.97941000000003 C 182.5282100000001 341.35441000000003 176.2082100000001 345.30361000000005 168.8442100000001 347.01041000000004 C 166.48091000000008 347.56119 164.0200100000001 347.87760000000003 161.48091000000008 347.93619 C 163.73091000000008 351.83849000000004 166.07471000000007 355.61589000000004 168.52781000000007 359.25619 C 174.70751000000007 368.45929 181.51181000000008 376.84219 188.78981000000007 384.38919 C 187.98903000000007 376.76419 189.63747000000006 368.93219 193.04761000000008 361.87719 C 196.86401000000006 353.98269 202.92261000000008 347.01018999999997 210.23161000000007 342.36919 C 214.35661000000007 339.74809 218.89181000000008 337.86139000000003 223.6806100000001 336.94729 C 225.02441000000007 336.69338 226.4540100000001 337.18948 227.3408100000001 338.34569 C 231.88771000000008 344.31049 234.3486100000001 351.21668999999997 234.8994100000001 358.21668999999997 C 235.4033200000001 364.64639 234.2822200000001 371.18168999999995 231.68061000000012 377.14669 C 229.0751100000001 383.11149 224.98921000000013 388.50568999999996 219.55561000000012 392.65069 C 215.54391000000012 395.71319 210.80171000000013 398.09989 205.39561000000012 399.52959 C 230.0836100000001 419.26759 258.4856100000001 430.79559 286.4856100000001 433.79159 C 292.5715100000001 434.44392999999997 294.5012100000001 438.63539 294.0090100000001 444.80359 C 293.6535400000001 449.19809 291.8606100000001 454.78019 289.6496100000001 460.58459 C 289.1378900000001 461.93619 288.2980100000001 463.01039 287.1574100000001 463.82289 C 283.5636100000001 466.39709 277.13441000000006 465.40099 269.13441000000006 461.94789 C 262.1266100000001 458.91269 253.48941000000005 453.97909 244.41141000000005 448.02189 C 220.24741000000006 432.16688999999997 192.55641000000006 408.75588999999997 183.59541000000004 394.80289 C 182.37271000000004 397.20909 180.95481000000004 399.45129 179.37661000000006 401.50599 C 173.94301000000004 408.57239 166.61861000000005 413.41599 158.52461000000005 415.89699 C 150.46991000000006 418.36179000000004 141.67661000000004 418.46339 133.26661000000004 416.05715000000004 C 127.81741000000004 414.49855 122.50461000000004 411.86575000000005 117.65361000000004 408.14305 C 116.32941000000004 407.12745 115.88801000000004 405.38915000000003 116.43881000000005 403.90475000000004 C 118.42711000000004 398.05315 121.41541000000005 392.85375000000005 125.13801000000005 388.44775000000004 C 130.79421000000005 381.75635000000005 138.13001000000006 376.89275000000004 146.16501000000005 374.40075 C 153.84471000000005 372.02185000000003 162.14501000000004 371.80695000000003 170.20001000000005 374.24059 C 167.49301000000006 370.76009 164.87971000000005 367.13899 162.36021000000005 363.39659 C 159.62581000000006 359.32629000000003 157.02041000000006 355.10749 154.52821000000006 350.74059 C 152.65321000000006 352.84999 150.61801000000006 354.66249 148.45401000000007 356.20939 C 142.29381000000006 360.58829 135.15301000000008 362.69768999999997 127.98501000000007 362.69768999999997 C 120.85611000000007 362.69768999999997 113.71501000000008 360.59608999999995 107.49701000000007 356.56489 C 103.46581000000008 353.94379 99.82511000000008 350.50629 96.82901000000007 346.30689 C 95.88760000000006 344.97099000000003 95.93448000000006 343.23659000000004 96.83682300000007 341.97489 L 96.82901000000007 341.97489 C 99.87981000000006 337.71709000000004 103.61421000000007 334.22879 107.75101000000006 331.56089000000003 C 113.97761000000007 327.54919 121.12601000000006 325.43979 128.24701000000007 325.40859 C 133.56731000000008 325.389058 138.86801000000008 326.52969 143.73901000000006 328.91639 C 140.30541000000005 320.82259 137.27021000000008 312.31138999999996 134.68431000000007 303.38939 C 131.31321000000005 305.47139 127.82491000000007 306.88159 124.31331000000007 307.69019 C 117.47351000000008 309.26829 110.59431000000008 308.54956999999996 104.44231000000008 306.00269 C 98.32121000000008 303.47148999999996 92.92631000000007 299.13158999999996 89.02431000000007 293.46768999999995 C 86.48521000000007 289.78018999999995 84.57121000000006 285.54188999999997 83.50091000000008 280.87769 C 83.13763000000007 279.27999 83.85638000000007 277.69408999999996 85.16111000000008 276.88158999999996 C 89.28611000000008 274.31519 93.72751000000008 272.64329 98.22711000000008 271.82298999999995 C 104.99271000000009 270.59248999999994 111.87211000000008 271.3112699999999 117.97711000000008 273.80348999999995 C 122.28961000000008 275.56908999999996 126.21931000000008 278.20968999999997 129.45711000000009 281.66288999999995 C 127.85941000000008 273.41288999999995 126.63681000000008 264.8538899999999 125.79691000000008 255.98688999999996 C 121.12891000000008 256.89313999999996 116.64851000000009 256.92047999999994 112.44191000000008 256.20955 C 105.02001000000008 254.94785 98.50791000000008 251.41264999999999 93.46491000000007 246.36184999999998 C 88.45321000000007 241.34234999999998 84.90631000000008 234.84584999999998 83.38691000000007 227.63185 C 82.39863000000007 222.95604999999998 82.25021000000007 217.97955 83.10566000000007 212.92084999999997 C 83.38691000000007 211.24894999999998 84.73846000000007 210.02634999999998 86.33616000000008 209.83104999999998 C 91.44166000000008 209.01073999999997 96.46116000000008 209.18651999999997 101.17616000000008 210.20604999999998 C 108.38316000000007 211.76465 114.89516000000008 215.31154999999998 119.92616000000008 220.30405 C 121.64496000000008 222.01104999999998 123.18396000000008 223.87824999999998 124.51996000000008 225.89385 C 124.56683600000008 219.08135 124.82855000000008 212.10885 125.33246000000008 204.97985 z M 123.19129999999997 190.62909000000005 C 124.98429999999998 193.76579000000004 127.34359999999997 196.73459000000005 130.31239999999997 199.42209000000005 C 133.65219999999997 197.43379000000004 136.49209999999997 195.05489000000006 138.83189999999996 192.39479000000006 C 143.59359999999995 186.98069000000007 146.26159999999996 180.39079000000007 146.91389999999996 173.57079000000004 C 147.57795999999996 166.66459000000003 146.20295999999996 159.50479000000004 142.89049999999995 153.02779000000004 C 141.07799999999995 149.48869000000005 138.67169999999996 146.14109000000005 135.68349999999995 143.13329000000004 C 132.26939999999996 145.40279000000004 129.32799999999995 148.12549000000004 126.90229999999995 151.16059000000004 C 122.37499999999996 156.81679000000005 119.64059999999995 163.54759000000004 118.94919999999995 170.43359000000004 C 118.25778999999994 177.29299000000003 119.59372999999995 184.33159000000003 123.19529999999995 190.63259000000005 z M 113.67179999999996 248.84009000000003 C 116.45299999999996 249.30493000000004 119.40229999999997 249.37134000000003 122.46479999999997 248.96118000000004 C 122.87495999999997 245.96508000000003 122.82807999999997 243.09008000000003 122.39058099999997 240.39478000000005 C 121.43746099999997 234.59788000000006 118.65618099999998 229.51178000000004 114.67968099999997 225.56278000000006 C 110.66798099999997 221.57838000000007 105.42968099999997 218.73858000000007 99.60568099999998 217.48078000000007 C 96.56268099999997 216.81672000000006 93.37128099999998 216.59406000000007 90.11348099999998 216.85578000000007 C 89.84395099999998 220.02768000000006 90.05879399999998 223.11748000000006 90.68379099999999 226.06668000000008 C 91.91429099999999 231.87138000000007 94.75409099999999 237.08968000000007 98.75799099999999 241.09368000000006 C 102.72279099999999 245.07028000000005 107.84779099999999 247.85928000000007 113.68399099999999 248.83978000000008 z M 142.35179999999997 292.72709000000003 C 145.10569999999996 292.652871 147.69949999999997 292.18412 150.09789999999998 291.39119000000005 C 155.25019999999998 289.69199000000003 159.5041 286.45369000000005 162.5469 282.30139 C 165.6172 278.10999000000004 167.4766 272.98499000000004 167.7813 267.57439000000005 C 167.92973999999998 264.88689000000005 167.707081 262.12519000000003 167.06255 259.3516900000001 C 164.16025 259.58607000000006 161.37894999999997 260.2306000000001 158.77345 261.2266900000001 C 153.66795 263.1758900000001 149.30865 266.48059000000006 146.23045 270.65249000000006 C 143.17964999999998 274.78529000000003 141.35934999999998 279.7696900000001 141.30075 285.14849000000004 C 141.273407 287.59379 141.60934 290.13289000000003 142.36325 292.73829000000006 z M 122.64879999999997 300.41849 C 125.10189999999997 299.84818 127.55899999999997 298.89899 129.95739999999998 297.53569000000005 C 129.25817999999998 294.94979000000006 128.22299999999998 292.60599 126.91439999999997 290.51619000000005 C 124.05889999999997 285.94199000000003 119.92219999999998 282.60999000000004 115.18439999999997 280.6684900000001 C 110.37579999999997 278.6996900000001 104.92639999999997 278.13729000000006 99.53939999999997 279.12939000000006 C 96.82459999999998 279.62548000000004 94.10579999999997 280.52779000000004 91.49249999999998 281.8441900000001 C 92.37921999999998 284.5433900000001 93.62139999999998 287.0160900000001 95.14089999999997 289.22699000000006 C 98.23069999999997 293.70749000000006 102.46899999999998 297.12149000000005 107.26589999999997 299.10979000000003 C 112.03539999999997 301.07859 117.35589999999998 301.64099000000004 122.64889999999997 300.41839000000004 z M 209.04679999999996 411.59849 C 220.52679999999995 421.86449000000005 235.03879999999995 432.97349 248.48779999999996 441.78949 C 257.2222 447.52779 265.46479999999997 452.25049 272.07379999999995 455.10949 C 277.50739999999996 457.45329 281.37069999999994 458.56259 282.71479999999997 457.85169 C 284.6953 452.65249 286.289 447.75369 286.5703 444.23469 C 286.71092 442.46129 286.503894 441.29329 285.69138999999996 441.21129 C 259.42538999999994 438.39099000000004 232.84738999999996 428.45329000000004 209.04638999999997 411.60629 z M 158.33979999999997 340.40349000000003 C 161.45699999999997 340.62615000000005 164.42569999999998 340.39567800000003 167.18749999999997 339.75115000000005 C 172.98439999999997 338.40735000000006 177.95749999999998 335.29025000000007 181.71049999999997 331.05195000000003 C 185.47999999999996 326.78635 188.01129999999998 321.38395 188.89799999999997 315.48595000000006 C 189.34721999999996 312.47035000000005 189.36283999999998 309.34535000000005 188.90581199999997 306.1695500000001 C 185.61281199999996 306.1031440000001 182.40971199999996 306.5250200000001 179.39411199999998 307.3726500000001 C 173.63631199999998 308.9976500000001 168.55011199999998 312.1617500000001 164.74911199999997 316.4156500000001 C 160.98741199999998 320.6344500000001 158.50691199999997 325.9078500000001 157.89751199999998 331.78665000000007 C 157.61626199999998 334.5288500000001 157.737352 337.4233500000001 158.33501199999998 340.41165000000007 z M 173.47679999999997 396.96249 C 175.69949999999997 394.06799 177.53539999999998 390.70859 178.87909999999997 386.89249 C 175.71499999999997 384.54089 172.39079999999996 382.81439 169.02359999999996 381.68549 C 162.13689999999997 379.36909 154.95759999999996 379.45499 148.33259999999996 381.51752 C 141.66849999999997 383.58781999999997 135.54759999999996 387.65031999999997 130.80559999999997 393.26752 C 128.20009999999996 396.35732 126.01649999999997 399.90422 124.39539999999997 403.84152 C 127.84069999999997 406.13842 131.52429999999995 407.81812 135.29739999999995 408.90012 C 142.34429999999995 410.91572 149.67239999999995 410.84152 156.35239999999996 408.79856 C 162.98909999999995 406.76336000000003 169.00839999999997 402.78686 173.46939999999995 396.97456 z M 199.07079999999996 393.20079 C 205.37939999999998 392.3336 210.73879999999997 390.00939 215.03979999999996 386.73199 C 219.43429999999995 383.37259 222.75069999999997 379.00539 224.86789999999996 374.16999 C 226.97729999999996 369.33409 227.89129999999997 364.01399 227.48119999999997 358.77198999999996 C 227.09838999999997 353.90088999999995 225.56709999999998 349.10398999999995 222.80539999999996 344.81098999999995 C 219.80929999999995 345.6508299999999 216.93429999999995 346.96718999999996 214.24679999999995 348.6742899999999 C 208.09449999999995 352.57658999999995 203.00079999999994 358.4476899999999 199.78179999999995 365.1192899999999 C 196.59039999999996 371.7169899999999 195.24659999999994 379.0452899999999 196.57089999999994 385.9512899999999 C 197.04745999999994 388.4356899999999 197.87949999999995 390.88098999999994 199.09039999999993 393.21298999999993 z M 144.12579999999997 350.12678999999997 C 146.44219999999996 348.48229 148.58669999999998 346.41979 150.47349999999997 343.93928999999997 C 148.63369999999998 341.52128999999996 146.55159999999998 339.50568999999996 144.30549999999997 337.89239 C 139.48909999999998 334.43928999999997 133.89149999999998 332.79469 128.24349999999995 332.82599 C 122.55989999999996 332.845522 116.81749999999995 334.56039 111.77049999999996 337.81039 C 109.14939999999996 339.49789 106.71189999999996 341.61899 104.57519999999995 344.13849 C 106.64549999999996 346.58378999999996 109.00099999999995 348.64628999999996 111.54789999999996 350.29868999999997 C 116.55179999999996 353.54479 122.28189999999995 355.23618999999997 127.98589999999996 355.23618999999997 C 133.64209999999997 355.23618999999997 139.27889999999996 353.57599 144.13389999999995 350.12289 z M 135.23129999999998 245.38678999999996 C 138.32109999999997 245.64069999999995 141.27039999999997 245.41413399999996 144.02429999999998 244.79694999999995 C 149.78209999999999 243.50784999999996 154.7473 240.44924999999995 158.5083 236.24614999999994 C 162.29739999999998 232.02734999999996 164.8638 226.67194999999995 165.77779999999998 220.83614999999995 C 166.24264 217.85954999999996 166.28951999999998 214.75024999999994 165.863737 211.59784999999994 C 162.57853699999998 211.50409999999994 159.394937 211.89472999999992 156.41063699999998 212.70724999999993 C 150.67233699999997 214.27364999999992 145.58263699999998 217.38304999999994 141.78563699999998 221.58224999999993 C 138.023937 225.73454999999993 135.523937 230.96114999999992 134.871537 236.80524999999994 C 134.574657 239.53964999999994 134.664507 242.41464999999994 135.234817 245.37164999999993 z M 569.7412999999999 199.40978999999996 C 572.6982999999999 196.72228999999996 575.0693999999999 193.75358999999995 576.8623999999999 190.61678999999995 C 580.4639999999998 184.31598999999994 581.7998999999999 177.28078999999994 581.1084999999998 170.41778999999994 C 580.4170899999998 163.53108999999995 577.6826999999998 156.80078999999995 573.1553999999999 151.14478999999994 C 570.7295999999999 148.10958999999994 567.7881999999998 145.39478999999994 564.3741999999999 143.11748999999995 C 561.3858999999999 146.11358999999996 558.9796999999999 149.46518999999995 557.1671999999999 153.01198999999994 C 553.8546999999999 159.48858999999993 552.4835999999999 166.64898999999994 553.1437999999998 173.55498999999995 C 553.7961399999998 180.38698999999994 556.4679999999998 186.96498999999994 561.2257999999998 192.37898999999996 C 563.5695999999998 195.03918999999996 566.4054999999998 197.41808999999995 569.7452999999998 199.40628999999996 z M 583.3312999999999 194.29648999999995 C 581.1477 198.12458999999996 578.2922 201.71838999999994 574.718 204.95648999999995 C 575.2140899999999 212.07758999999996 575.48362 219.05048999999994 575.5305 225.87048999999996 C 576.8664 223.85488999999995 578.4055 221.97988999999995 580.1243 220.28068999999996 C 585.1437999999999 215.28848999999997 591.6592999999999 211.74158999999997 598.8743 210.18268999999995 C 603.5890999999999 209.16708999999994 608.6087 208.98738999999995 613.7143 209.80768999999995 C 615.3198 209.99518999999995 616.6635 211.22568999999996 616.9448 212.89748999999995 C 617.80418 217.95608999999996 617.65574 222.93248999999994 616.66355 227.60848999999996 C 615.13235 234.82328999999996 611.58545 241.32748999999995 606.58555 246.33848999999995 C 601.54645 251.38928999999996 595.0305500000001 254.93618999999995 587.60855 256.18618999999995 C 583.39765 256.89712999999995 578.92105 256.86587999999995 574.25355 255.96352999999996 C 573.41371 264.83072999999996 572.19105 273.38953 570.59335 281.63953 C 573.83165 278.18643 577.75355 275.54573 582.07335 273.78013 C 588.18665 271.28013 595.05735 270.56133 601.82335 271.79963 C 606.32335 272.61994 610.76475 274.29183 614.88935 276.85823 C 616.2057500000001 277.67073 616.9127500000001 279.26443 616.5495500000001 280.85433 C 615.47535 285.52233 613.5612500000001 289.76843 611.02615 293.44433 C 607.1238500000001 299.10843 601.72925 303.44833 595.60815 305.97933 C 589.45585 308.52623 582.5771500000001 309.24493 575.73715 307.66683 C 572.2293500000001 306.85433 568.73715 305.44413000000003 565.3661500000001 303.36603 C 562.78025 312.29963000000004 559.74895 320.81103 556.31145 328.89303 C 561.19425 326.50243 566.4834500000001 325.36573 571.80345 325.38523000000004 C 578.92455 325.41257400000006 586.07345 327.52193000000005 592.29945 331.53753000000006 C 596.43225 334.20553000000007 600.16665 337.69773000000004 603.22145 341.95153000000005 L 603.213637 341.95153000000005 C 604.108167 343.21323000000007 604.166757 344.94763000000006 603.22145 346.28353000000004 C 600.23315 350.48273000000006 596.58475 353.91633 592.55345 356.54153 C 586.33865 360.58453000000003 579.18645 362.67433 572.06545 362.67433 C 564.89745 362.67433 557.7564500000001 360.56493 551.59645 356.18603 C 549.43235 354.64693 547.38555 352.82663 545.52225 350.71723000000003 C 543.0378499999999 355.09613 540.42455 359.31493 537.69025 363.37323000000004 C 535.17075 367.11543000000006 532.55745 370.73653 529.85045 374.21723000000003 C 537.90515 371.77973000000003 546.20245 371.98673 553.88545 374.37739000000005 C 561.91275 376.8695900000001 569.25645 381.73289000000005 574.91245 388.4243900000001 C 578.62725 392.8305900000001 581.6233500000001 398.0298900000001 583.61165 403.88139000000007 C 584.1624300000001 405.36579000000006 583.71321 407.10019000000005 582.3968500000001 408.11969000000005 C 577.5452500000001 411.85409000000004 572.2328500000001 414.47519000000005 566.78385 416.03379000000007 C 558.37365 418.4399900000001 549.58085 418.3384900000001 541.52585 415.87363000000005 C 533.43205 413.4009300000001 526.10785 408.54553000000004 520.67385 401.48263000000003 C 519.0957500000001 399.42793 517.6777500000001 397.19743000000005 516.45505 394.77953 C 507.49415000000005 408.72453 479.80305000000004 432.13153 455.63905 447.99853 C 446.55705 453.95163 437.93205 458.90053 430.91605 461.92453 C 422.91605 465.37763 416.48605 466.37763 412.89304999999996 463.79953 C 411.75634999999994 462.98703 410.91254999999995 461.91283 410.40084999999993 460.56123 C 408.18994999999995 454.75653 406.39694999999995 449.17423 406.04144999999994 444.78023 C 405.54535999999996 438.61223 407.47894999999994 434.42123000000004 413.5648499999999 433.76823 C 441.5648499999999 430.76433000000003 469.9668499999999 419.24523 494.6548499999999 399.50623 C 489.25254999999987 398.07653 484.5098499999999 395.69763 480.4948499999999 392.62733000000003 C 475.06124999999986 388.48283000000004 470.9753499999999 383.08823 468.3698499999999 377.12333 C 465.76434999999987 371.15853 464.6471499999999 364.62733000000003 465.1510499999999 358.19333 C 465.70182999999986 351.18553 468.1549499999999 344.27933 472.7096499999999 338.32233 C 473.5963699999999 337.16613 475.0260499999999 336.67003 476.3698499999999 336.92393000000004 C 481.1589499999999 337.83799000000005 485.6940499999999 339.73253000000005 489.8188499999999 342.34583000000003 C 497.1274499999999 346.98253000000005 503.1858499999999 353.95483 507.0028499999999 361.85383 C 510.41694999999993 368.90853000000004 512.0614499999999 376.73283000000004 511.2606499999999 384.36583 C 518.5418499999998 376.82283 525.3346499999999 368.44383 531.5226499999999 359.23283000000004 C 533.9679499999999 355.59223000000003 536.3195499999999 351.81093000000004 538.5695499999999 347.91283000000004 C 536.0226499999999 347.85814200000004 533.5578499999999 347.53783000000004 531.20625 346.98705000000007 C 523.84295 345.2800500000001 517.52225 341.33085000000005 512.77225 335.95605000000006 C 508.04955 330.6083500000001 504.87775 323.87005000000005 503.78395 316.53405000000004 C 503.07301 311.79185 503.23317000000003 306.79965000000004 504.40114 301.76805 C 504.77614 300.12355 506.19414 298.98685 507.78784 298.88525000000004 C 512.96754 298.37353 517.99884 298.857906 522.67484 300.16255000000007 C 529.82324 302.17035000000004 536.1438400000001 306.1156500000001 540.87384 311.4285500000001 C 544.81134 315.8426500000001 547.6511399999999 321.20195000000007 548.94804 327.16255000000007 C 552.62384 318.65085000000005 555.83474 309.6425500000001 558.53394 300.15055000000007 C 554.6316400000001 300.15836300000007 550.98314 299.55289000000005 547.6239400000001 298.4435500000001 C 540.95204 296.24045000000007 535.4439400000001 292.04125000000005 531.5069400000001 286.6665500000001 C 527.5967400000001 281.32675000000006 525.2335400000001 274.8225500000001 524.8428400000001 267.93655000000007 C 524.5889300000001 263.4756500000001 525.1592500000002 258.8662500000001 526.6553400000001 254.32755000000006 C 527.2061200000002 252.66735000000006 528.8115400000002 251.64785000000006 530.4834400000001 251.76895000000005 C 535.2529400000001 251.74941900000005 539.7998400000001 252.61661000000004 543.9524400000001 254.20645000000005 C 550.3821400000002 256.67125000000004 555.8974400000002 260.86265000000003 559.8274400000001 266.17145000000005 C 561.7141400000002 268.71835000000004 563.2336400000002 271.51915 564.3157400000001 274.51525000000004 C 565.5110400000001 267.44105 566.4446400000002 260.13225000000006 567.0774400000001 252.60925000000003 C 562.6360400000001 253.15222000000003 558.4055400000001 252.91784000000004 554.4604400000002 252.03113000000002 C 547.1049400000002 250.37883000000002 540.7884400000002 246.50773 536.0344400000001 241.21513000000002 C 531.3039400000001 235.94953 528.1008400000002 229.25813000000002 526.9524400000001 221.94913000000003 C 526.2063500000002 217.22643000000002 526.3274400000001 212.26163000000003 527.4485300000001 207.25813000000002 C 527.8040000000001 205.66043000000002 529.1282300000001 204.53153000000003 530.6673300000001 204.36363000000003 L 530.6673300000001 204.35581700000003 C 535.8470300000001 203.78550700000002 540.90533 204.22690700000004 545.6283300000001 205.51201700000004 C 552.7494300000001 207.45341700000003 559.0693300000001 211.33621700000003 563.8083300000001 216.58201700000004 C 565.4060300000001 218.34761700000004 566.8317300000001 220.26951700000004 568.04663 222.32031700000005 C 567.95288 217.16801700000005 567.73022 211.92231700000005 567.3747500000001 206.58631700000004 C 562.6911500000001 204.02771700000002 558.77705 200.86361700000003 555.6327500000001 197.28941700000004 C 549.8085500000001 190.66441700000004 546.5429500000001 182.59841700000004 545.7382500000001 174.23441700000004 C 544.9452800000001 165.94531700000005 546.5780900000001 157.35941700000004 550.5468500000001 149.60541700000005 C 553.17965 144.45311700000005 556.8202500000001 139.69521700000004 561.4298500000001 135.63241700000003 L 561.4298500000001 135.64022900000003 C 562.5860500000001 134.62462900000003 564.3126500000001 134.39022900000003 565.7228500000001 135.20272900000003 C 570.9962500000001 138.20662900000002 575.4298500000001 142.06212900000003 578.9568500000001 146.46072900000004 C 584.3982500000002 153.25372900000005 587.6834500000001 161.34772900000004 588.5154500000001 169.67172900000003 C 589.3552900000001 178.02332900000002 587.7224800000001 186.58172900000002 583.3357500000001 194.27372900000003 z M 577.5812999999999 248.95248999999995 C 580.6515999999999 249.36264999999995 583.6007999999999 249.29623999999995 586.3743 248.83139999999995 C 592.2062999999999 247.84311999999994 597.3232999999999 245.05019999999993 601.3003 241.08529999999993 C 605.3042 237.07359999999994 608.1401 231.85479999999993 609.3745 226.05829999999995 C 609.9995 223.10909999999996 610.20653 220.01139999999995 609.94481 216.84739999999994 C 606.68701 216.58567999999994 603.4956099999999 216.82005599999994 600.4526099999999 217.47239999999994 C 594.6284099999999 218.73409999999993 589.39361 221.57009999999994 585.37861 225.55439999999993 C 581.40201 229.50359999999992 578.62081 234.58959999999993 577.6677099999999 240.38639999999992 C 577.21849 243.0855999999999 577.17162 245.95669999999993 577.593491 248.9527999999999 z M 549.9562999999999 291.38248999999996 C 552.3547 292.17546 554.9485 292.64419 557.7023999999999 292.71838999999994 C 558.4602099999998 290.12458999999996 558.7961999999999 287.57388999999995 558.7648999999999 285.1285899999999 C 558.710213 279.7613899999999 556.8898999999999 274.76958999999994 553.8351999999999 270.63258999999994 C 550.7453999999999 266.46068999999994 546.3976999999999 263.1559899999999 541.2921999999999 261.20678999999996 C 538.6866999999999 260.20678999999996 535.9054999999998 259.56228999999996 533.0030999999999 259.33178999999996 C 532.3585699999999 262.10518999999994 532.1359099999999 264.86698999999993 532.2843499999999 267.55448999999993 C 532.5929399999999 272.9763899999999 534.4405499999999 278.0934899999999 537.51875 282.2814899999999 C 540.56175 286.43378999999993 544.81565 289.6720899999999 549.9677499999999 291.37128999999993 z M 570.0972999999999 297.52308999999997 C 572.4878999999999 298.89419 574.9410999999999 299.84729 577.4058999999999 300.40588999999994 C 582.6988999999999 301.6285899999999 588.0188999999998 301.06994999999995 592.7888999999999 299.09728999999993 C 597.5858 297.10898999999995 601.8240999999999 293.6949899999999 604.9138999999999 289.21448999999996 C 606.4333999999999 287.00359 607.6755999999999 284.53088999999994 608.5622999999999 281.83169 C 605.949 280.50748999999996 603.2342 279.60899 600.5153999999999 279.11688999999996 C 595.1286999999999 278.13641999999993 589.6873999999999 278.69500999999997 584.8703999999999 280.65599 C 580.1281999999999 282.59738999999996 575.9836999999999 285.92159 573.1403999999999 290.50368999999995 C 571.8434999999998 292.59349 570.8083999999999 294.93728999999996 570.0973999999999 297.52318999999994 z M 451.5572999999999 441.79309 C 465.0062999999999 432.97279000000003 479.51029999999986 421.87509 490.99829999999986 411.60209000000003 C 467.19729999999987 428.45009000000005 440.6152999999999 438.39909000000006 414.3532999999999 441.20709000000005 C 413.5525199999999 441.29302800000005 413.33769999999987 442.45709000000005 413.47438999999986 444.23049000000003 C 413.75563999999986 447.74999 415.34938999999986 452.64849000000004 417.32988999999986 457.84749000000005 C 418.66578999999984 458.55843000000004 422.53688999999986 457.45686000000006 427.9708899999999 455.10529 C 434.5802899999999 452.24979 442.8188899999999 447.52719 451.5568899999999 441.78529000000003 z M 532.8582999999999 339.75309 C 535.6199999999999 340.39761999999996 538.5887999999999 340.63981 541.7059999999999 340.40542999999997 C 542.3036599999999 337.41713 542.4325599999999 334.52653 542.1434999999999 331.78042999999997 C 541.5380299999999 325.90932999999995 539.0536999999999 320.62843 535.2918999999999 316.40943 C 531.5028 312.15163 526.4168999999999 308.97972999999996 520.6469 307.36643 C 517.6313 306.51876999999996 514.4321 306.09693 511.13519999999994 306.16333 C 510.67816999999997 309.33522999999997 510.69769999999994 312.47193 511.14301299999994 315.47972999999996 C 512.0219229999999 321.37812999999994 514.557113 326.79173 518.3305129999999 331.04572999999993 C 522.0727129999999 335.2840299999999 527.0571129999998 338.40122999999994 532.8535129999999 339.74492999999995 z M 521.1632999999998 386.90509 C 522.5070999999998 390.72148999999996 524.3468999999998 394.08088999999995 526.5655999999998 396.97508999999997 C 531.0264999999998 402.77979 537.0455999999998 406.76419 543.6825999999998 408.79909 C 550.3661999999997 410.84209 557.6905999999998 410.91629 564.7375999999997 408.90065 C 568.5187999999997 407.81865 572.1945999999997 406.13894999999997 575.6395999999997 403.84205 C 574.0145999999997 399.90455 571.8309999999998 396.35765 569.2293999999997 393.26804999999996 C 564.4871999999997 387.65864999999997 558.3743999999997 383.58834999999993 551.7023999999997 381.51804999999996 C 545.0773999999997 379.46334999999993 537.8973999999997 379.36965 531.0113999999996 381.68602 C 527.6402999999997 382.82272 524.3199999999996 384.54152 521.1558999999996 386.89302 z M 485.0152999999998 386.73711999999995 C 489.3160999999998 390.0223199999999 494.6675999999998 392.33871999999997 500.9842999999998 393.20591999999994 C 502.1990999999998 390.87391999999994 503.0272999999998 388.43641999999994 503.5037999999998 385.9442199999999 C 504.8279999999998 379.0380199999999 503.48426799999976 371.71021999999994 500.2928999999998 365.1122199999999 C 497.0623999999998 358.4481199999999 491.9686999999998 352.5692199999999 485.82789999999983 348.66721999999993 C 483.14039999999983 346.96021999999994 480.26539999999983 345.64381999999995 477.2692999999998 344.80391999999995 C 474.49589999999984 349.09691999999995 472.9762999999998 353.90551999999997 472.59349999999984 358.76491999999996 C 472.1833399999998 364.01881999999995 473.0895899999998 369.33091999999994 475.2067999999998 374.16292 C 477.3161999999998 378.99881999999997 480.6286999999998 383.36602 485.0348999999998 386.72492 z M 549.5812999999998 343.9521199999999 C 551.4757999999998 346.4365199999999 553.6124999999998 348.4873199999999 555.9289999999999 350.1396199999999 C 560.7805999999998 353.59271999999993 566.4209999999998 355.2529199999999 572.0769999999999 355.2529199999999 C 577.7800999999998 355.2529199999999 583.5109999999999 353.5654199999999 588.5149999999999 350.3154199999999 C 591.0618999999999 348.6631199999999 593.4133999999999 346.6006199999999 595.4876999999999 344.15521999999993 C 593.3509999999999 341.63571999999994 590.9134999999999 339.5185199999999 588.2923999999999 337.8271199999999 C 583.2416 334.5810199999999 577.5033999999999 332.8623199999999 571.8194 332.84271999999993 C 566.1827 332.82318899999996 560.5734 334.46771999999993 555.7574 337.9091199999999 C 553.5074 339.5224199999999 551.4176 341.53021999999993 549.5894 343.9560199999999 z M 556.0382999999998 244.81511999999992 C 558.7921999999999 245.43230999999992 561.7413999999998 245.65495999999993 564.8312999999998 245.40495999999993 C 565.4016099999998 242.44795999999994 565.4953599999998 239.57295999999994 565.1945799999999 236.83855999999994 C 564.5500499999998 230.98695999999995 562.0383799999998 225.76055999999994 558.2804799999999 221.61555999999993 C 554.4835799999998 217.41635999999994 549.3937799999999 214.30695999999992 543.6554799999999 212.74055999999993 C 540.6593799999999 211.92805999999993 537.4874799999999 211.52575999999993 534.20238 211.63115999999994 C 533.7726899999999 214.78735999999995 533.8117599999999 217.89285999999993 534.288318 220.86945999999995 C 535.202378 226.71325999999993 537.768818 232.06045999999995 541.557818 236.27945999999994 C 545.319518 240.47085999999993 550.292218 243.53335999999993 556.041818 244.83025999999995 z M 314.33829999999983 192.65111999999993 C 311.85389999999984 195.13551999999993 310.61559999999986 198.38161999999994 310.61559999999986 201.63941999999994 C 310.61559999999986 204.89721999999995 311.8577999999999 208.14331999999993 314.33829999999983 210.62771999999995 C 316.8226999999998 213.11211999999995 320.06879999999984 214.35041999999996 323.3265999999998 214.35041999999996 C 324.7093999999998 214.35041999999996 326.0804999999998 214.12775999999997 327.3968999999998 213.67853999999997 L 324.1859999999998 210.89733999999996 C 322.6273999999998 209.55353999999997 322.4593999999998 207.20203999999995 323.8031899999998 205.64343999999997 C 323.8422529999998 205.59656499999997 327.2836899999998 202.16293999999996 327.3226899999998 202.12393999999998 C 328.8812899999998 200.78014 331.2249899999998 200.94813999999997 332.5765899999998 202.50674999999998 L 335.3577899999998 205.71765 C 335.8070099999998 204.40125 336.0296699999998 203.01845 336.0296699999998 201.64735 C 336.0296699999998 198.38954999999999 334.78746999999976 195.14345 332.3069699999998 192.65904999999998 C 329.8225699999998 190.17464999999999 326.5764699999998 188.93634999999998 323.3186699999998 188.93634999999998 C 320.06086999999985 188.93634999999998 316.81476999999984 190.17854999999997 314.33036999999985 192.65904999999998 z M 314.33829999999983 264.71311999999995 C 316.8226999999998 267.19751999999994 320.06879999999984 268.4358199999999 323.3265999999998 268.4358199999999 C 326.5843999999998 268.4358199999999 329.8304999999998 267.1936199999999 332.3148999999998 264.71311999999995 C 334.7992999999998 262.22871999999995 336.03759999999977 258.98261999999994 336.03759999999977 255.72481999999994 C 336.03759999999977 254.34201999999993 335.81493999999975 252.97091999999995 335.3657199999998 251.65451999999993 L 332.58451999999977 254.86541999999994 C 331.2407199999998 256.4240199999999 328.8892199999998 256.59201999999993 327.3306199999998 255.24822999999995 C 327.2837449999998 255.20916699999995 323.8501199999998 251.76772999999994 323.8111199999998 251.72872999999996 C 322.4673199999998 250.17012999999994 322.6353199999998 247.82642999999996 324.1939299999998 246.47482999999997 L 327.4048299999998 243.69362999999996 C 326.0884299999998 243.24440999999996 324.70562999999976 243.02174999999997 323.3345299999998 243.02174999999997 C 320.0767299999998 243.02174999999997 316.8306299999998 244.26394999999997 314.3462299999998 246.74444999999997 C 311.8618299999998 249.22884999999997 310.62352999999985 252.47494999999998 310.62352999999985 255.73274999999998 C 310.62352999999985 258.99055 311.86572999999987 262.23665 314.3462299999998 264.72105 z M 280.7952999999998 159.10311999999993 C 300.0142999999998 139.89611999999994 325.18629999999985 130.28311999999994 350.3652999999998 130.28311999999994 C 375.5452999999998 130.28311999999994 400.7282999999998 139.88861999999995 419.9352999999998 159.10311999999993 C 439.1542999999998 178.32211999999993 448.7552999999998 203.49411999999992 448.7552999999998 228.67311999999993 C 448.7552999999998 253.85311999999993 439.1497999999998 279.0361199999999 419.9352999999998 298.2431199999999 C 400.7282999999998 317.4501199999999 375.5442999999998 327.0631199999999 350.3652999999998 327.0631199999999 C 325.1852999999998 327.0631199999999 300.0022999999998 317.4576199999999 280.7952999999998 298.2431199999999 C 261.58829999999983 279.0361199999999 251.97529999999983 253.85211999999993 251.97529999999983 228.67311999999993 C 251.97529999999983 203.49311999999992 261.58079999999984 178.31011999999993 280.7952999999998 159.10311999999993 z M 286.07649999999984 164.38431999999995 C 268.3224999999998 182.13831999999994 259.4474999999998 205.40431999999996 259.4474999999998 228.68131999999994 C 259.4474999999998 251.95131999999995 268.3224999999998 275.21631999999994 286.07649999999984 292.97831999999994 C 303.83049999999986 310.73231999999996 327.0964999999998 319.60731999999996 350.3734999999998 319.60731999999996 C 373.6434999999998 319.60731999999996 396.9084999999998 310.73231999999996 414.67049999999983 292.97831999999994 C 432.42449999999985 275.2243199999999 441.29949999999985 251.95831999999993 441.29949999999985 228.68131999999994 C 441.29949999999985 205.41131999999993 432.42449999999985 182.14631999999995 414.67049999999983 164.38431999999995 C 396.9164999999998 146.63031999999995 373.65049999999985 137.75531999999995 350.3734999999998 137.75531999999995 C 327.1034999999998 137.75531999999995 303.83849999999984 146.63031999999995 286.0764999999998 164.38431999999995 z M 386.39649999999983 264.70431999999994 C 388.8808999999998 262.21991999999995 390.1191999999998 258.97381999999993 390.1191999999998 255.71601999999993 C 390.1191999999998 252.45821999999993 388.8769999999998 249.21211999999994 386.39649999999983 246.72771999999992 C 383.91209999999984 244.24331999999993 380.6659999999998 243.00501999999992 377.40819999999985 243.00501999999992 C 376.0253999999999 243.00501999999992 374.65429999999986 243.2276799999999 373.3378999999999 243.6768999999999 L 376.54879999999986 246.45809999999992 C 378.10739999999987 247.8018999999999 378.2753999999999 250.15339999999992 376.93160999999986 251.7119999999999 C 376.89254699999987 251.7588749999999 373.45110999999986 255.1924999999999 373.41210999999987 255.2314999999999 C 371.85350999999986 256.5752999999999 369.50980999999985 256.4072999999999 368.1582099999999 254.8486899999999 L 365.37700999999987 251.63778999999988 C 364.92778999999985 252.95418999999987 364.7051299999999 254.33698999999987 364.7051299999999 255.70808999999988 C 364.7051299999999 258.9658899999999 365.9473299999999 262.2119899999999 368.42782999999986 264.6963899999999 C 370.91222999999985 267.1807899999999 374.15832999999986 268.41908999999987 377.41612999999984 268.41908999999987 C 380.6739299999998 268.41908999999987 383.9200299999998 267.17688999999984 386.4044299999998 264.6963899999999 z M 386.39649999999983 192.64231999999993 C 383.91209999999984 190.15791999999993 380.6659999999998 188.91961999999992 377.40819999999985 188.91961999999992 C 374.1503999999999 188.91961999999992 370.90429999999986 190.16181999999992 368.41989999999987 192.64231999999993 C 365.9354999999999 195.12671999999992 364.6971999999999 198.37281999999993 364.6971999999999 201.63061999999994 C 364.6971999999999 203.01341999999994 364.9198599999999 204.38451999999992 365.3690799999999 205.70091999999994 L 368.1502799999999 202.49001999999993 C 369.4940799999999 200.93141999999992 371.84557999999987 200.76341999999994 373.4041799999999 202.10720999999992 C 373.4510549999999 202.14627299999992 376.8846799999999 205.58770999999993 376.9236799999999 205.62670999999992 C 378.26747999999986 207.18530999999993 378.09947999999986 209.52900999999991 376.54086999999987 210.8806099999999 L 373.3299699999999 213.66180999999992 C 374.6463699999999 214.11102999999991 376.0291699999999 214.3336899999999 377.40026999999986 214.3336899999999 C 380.65806999999984 214.3336899999999 383.90416999999985 213.0914899999999 386.38856999999985 210.6109899999999 C 388.87296999999984 208.1265899999999 390.1112699999998 204.8804899999999 390.1112699999998 201.6226899999999 C 390.1112699999998 198.3648899999999 388.8690699999998 195.1187899999999 386.38856999999985 192.63438999999988 z M 255.65649999999982 133.96231999999992 C 281.8084999999998 107.81031999999992 316.0904999999998 94.73531999999992 350.37149999999986 94.73531999999992 C 384.6524999999999 94.73531999999992 418.93349999999987 107.80931999999991 445.0864999999999 133.96231999999992 C 471.2384999999999 160.1143199999999 484.31349999999986 194.39631999999992 484.31349999999986 228.67731999999992 C 484.31349999999986 262.95831999999996 471.23949999999985 297.2393199999999 445.0864999999999 323.3923199999999 C 418.9344999999999 349.5443199999999 384.6524999999999 362.6193199999999 350.37149999999986 362.6193199999999 C 316.0904999999998 362.6193199999999 281.80949999999984 349.5453199999999 255.65649999999985 323.3923199999999 C 229.50449999999984 297.24031999999994 216.42949999999985 262.95831999999996 216.42949999999985 228.67731999999992 C 216.42949999999985 194.3963199999999 229.50349999999986 160.11531999999994 255.65649999999985 133.96231999999992 z M 350.37149999999986 102.20031999999992 C 318.00449999999984 102.20031999999992 285.6374999999999 114.54831999999992 260.9374999999999 139.24331999999993 C 236.2424999999999 163.93831999999992 223.89449999999988 196.30531999999994 223.89449999999988 228.67731999999992 C 223.89449999999988 261.0443199999999 236.2424999999999 293.41131999999993 260.9374999999999 318.1113199999999 C 285.6324999999999 342.8063199999999 317.9994999999999 355.1543199999999 350.37149999999986 355.1543199999999 C 382.7384999999999 355.1543199999999 415.10549999999984 342.8063199999999 439.8054999999998 318.1113199999999 C 464.5004999999998 293.4163199999999 476.84849999999983 261.0493199999999 476.84849999999983 228.67731999999992 C 476.84849999999983 196.31031999999993 464.5004999999998 163.94331999999991 439.8054999999998 139.24331999999993 C 415.11049999999983 114.54831999999993 382.7434999999998 102.20031999999992 350.37149999999986 102.20031999999992 z" stroke-linecap="round" />
</g>
		<g transform="matrix(1.33 0 0 1.33 -364.99 310.21)"  >
<path style="stroke: none; stroke-width: 1; stroke-dasharray: none; stroke-linecap: butt; stroke-dashoffset: 0; stroke-linejoin: miter; stroke-miterlimit: 4; fill: rgb(53,79,82); fill-rule: nonzero; opacity: 1;" vector-effect="non-scaling-stroke"  transform=" translate(-0.02, 0.02)" d="M 0.03125 0 L 0.015625 0 L 0 0 L 0 -0.015625 L 0 -0.03125 L 0.015625 -0.03125 L 0.03125 -0.03125 L 0.015625 -0.03125 L 0.015625 -0.015625 L 0.015625 0 L 0.03125 0 L 0.03125 -0.015625 z" stroke-linecap="round" />
</g>
		<g transform="matrix(1.33 0 0 1.33 -364.95 310.21)"  >
<path style="stroke: none; stroke-width: 1; stroke-dasharray: none; stroke-linecap: butt; stroke-dashoffset: 0; stroke-linejoin: miter; stroke-miterlimit: 4; fill: rgb(53,79,82); fill-rule: nonzero; opacity: 1;" vector-effect="non-scaling-stroke"  transform=" translate(-0.01, 0.02)" d="M 0.015625 -0.015625 L 0.015625 0 L 0 0 L 0 -0.03125 L 0.015625 -0.03125 L 0.015625 -0.015625 L 0.015625 -0.03125 z" stroke-linecap="round" />
</g>
		<g transform="matrix(1.33 0 0 1.33 -364.91 310.21)"  >
<path style="stroke: none; stroke-width: 1; stroke-dasharray: none; stroke-linecap: butt; stroke-dashoffset: 0; stroke-linejoin: miter; stroke-miterlimit: 4; fill: rgb(53,79,82); fill-rule: nonzero; opacity: 1;" vector-effect="non-scaling-stroke"  transform=" translate(-0.02, 0.02)" d="M 0.03125 -0.015625 L 0.015625 -0.015625 L 0.015625 0 C 0.0234375 0 0.03125 -0.0039062 0.03125 -0.015625 L 0.03125 0 L 0.015625 0 L 0 0 L 0 -0.015625 L 0.015625 -0.03125 L 0.015625 -0.015625 L 0.03125 -0.015625 z" stroke-linecap="round" />
</g>
		<g transform="matrix(1.33 0 0 1.33 -364.87 310.21)"  >
<path style="stroke: none; stroke-width: 1; stroke-dasharray: none; stroke-linecap: butt; stroke-dashoffset: 0; stroke-linejoin: miter; stroke-miterlimit: 4; fill: rgb(53,79,82); fill-rule: nonzero; opacity: 1;" vector-effect="non-scaling-stroke"  transform=" translate(-0.02, 0.02)" d="M 0.015625 -0.015625 L 0.015625 0 L 0.015625 -0.015625 z M 0.03125 -0.015625 L 0.03125 0 L 0.015625 0 L 0 0 L 0 -0.015625 L 0.015625 -0.015625 L 0 -0.015625 L 0 -0.03125 L 0.015625 -0.03125 L 0.015625 -0.015625 L 0.03125 -0.015625 z" stroke-linecap="round" />
</g>
		<g transform="matrix(1.33 0 0 1.33 -364.83 310.21)"  >
<path style="stroke: none; stroke-width: 1; stroke-dasharray: none; stroke-linecap: butt; stroke-dashoffset: 0; stroke-linejoin: miter; stroke-miterlimit: 4; fill: rgb(53,79,82); fill-rule: nonzero; opacity: 1;" vector-effect="non-scaling-stroke"  transform=" translate(-0.01, 0.02)" d="M 0.015625 -0.03125 L 0.015625 -0.015625 L 0.015625 0 L 0 0 L 0 -0.015625 L 0 -0.03125 z" stroke-linecap="round" />
</g>
		<g transform="matrix(1.33 0 0 1.33 -364.79 310.21)"  >
<path style="stroke: none; stroke-width: 1; stroke-dasharray: none; stroke-linecap: butt; stroke-dashoffset: 0; stroke-linejoin: miter; stroke-miterlimit: 4; fill: rgb(53,79,82); fill-rule: nonzero; opacity: 1;" vector-effect="non-scaling-stroke"  transform=" translate(-0.02, 0.02)" d="M 0.03125 -0.015625 L 0.015625 -0.015625 L 0.015625 0 C 0.0234375 0 0.03125 -0.0039062 0.03125 -0.015625 L 0.03125 0 L 0.015625 0 L 0 0 L 0 -0.015625 L 0.015625 -0.03125 L 0.015625 -0.015625 L 0.03125 -0.015625 z" stroke-linecap="round" />
</g>
		<g transform="matrix(1.33 0 0 1.33 -364.75 310.21)"  >
<path style="stroke: none; stroke-width: 1; stroke-dasharray: none; stroke-linecap: butt; stroke-dashoffset: 0; stroke-linejoin: miter; stroke-miterlimit: 4; fill: rgb(53,79,82); fill-rule: nonzero; opacity: 1;" vector-effect="non-scaling-stroke"  transform=" translate(-0.02, 0.02)" d="M 0.015625 -0.015625 L 0.015625 -0.03125 L 0.03125 -0.03125 L 0.03125 0 L 0.015625 0 L 0 0 L 0 -0.015625 L 0.015625 -0.03125 L 0.015625 -0.015625 z M 0.015625 0 L 0.015625 -0.015625 L 0.015625 0 z" stroke-linecap="round" />
</g>
		<g transform="matrix(1.33 0 0 1.33 -364.69 310.21)"  >
<path style="stroke: none; stroke-width: 1; stroke-dasharray: none; stroke-linecap: butt; stroke-dashoffset: 0; stroke-linejoin: miter; stroke-miterlimit: 4; fill: rgb(53,79,82); fill-rule: nonzero; opacity: 1;" vector-effect="non-scaling-stroke"  transform=" translate(-0.02, 0.02)" d="M 0.015625 0 L 0.015625 -0.015625 L 0.015625 0 z M 0.015625 -0.015625 L 0.015625 -0.03125 C 0.0234375 -0.03125 0.03125 -0.0234375 0.03125 -0.015625 L 0.03125 0 L 0.015625 0 L 0 0 L 0 -0.03125 L 0.015625 -0.03125 z" stroke-linecap="round" />
</g>
		<g transform="matrix(1.33 0 0 1.33 -364.64 310.22)"  >
<path style="stroke: none; stroke-width: 1; stroke-dasharray: none; stroke-linecap: butt; stroke-dashoffset: 0; stroke-linejoin: miter; stroke-miterlimit: 4; fill: rgb(53,79,82); fill-rule: nonzero; opacity: 1;" vector-effect="non-scaling-stroke"  transform=" translate(-0.02, 0.01)" d="M 0 -0.03125 L 0.015625 -0.03125 L 0.015625 -0.015625 L 0.015625 -0.03125 L 0.03125 -0.03125 L 0.015625 0 L 0.015625 0.015625 L 0 0.015625 L 0 0 L 0.015625 0 z" stroke-linecap="round" />
</g>
		<g transform="matrix(1.33 0 0 1.33 -364.58 310.21)"  >
<path style="stroke: none; stroke-width: 1; stroke-dasharray: none; stroke-linecap: butt; stroke-dashoffset: 0; stroke-linejoin: miter; stroke-miterlimit: 4; fill: rgb(53,79,82); fill-rule: nonzero; opacity: 1;" vector-effect="non-scaling-stroke"  transform=" translate(-0.02, 0.02)" d="M 0.015625 -0.03125 L 0.015625 -0.015625 L 0.015625 0 L 0.03125 0 L 0.03125 -0.015625 C 0.03125 -0.0234375 0.0234375 -0.03125 0.015625 -0.03125 z M 0.015625 -0.03125 L 0.03125 -0.03125 L 0.03125 -0.015625 L 0.03125 0 L 0.015625 0 L 0 0 L 0 -0.015625 L 0 -0.03125 L 0.015625 -0.03125 z" stroke-linecap="round" />
</g>
		<g transform="matrix(1.33 0 0 1.33 -364.54 310.21)"  >
<path style="stroke: none; stroke-width: 1; stroke-dasharray: none; stroke-linecap: butt; stroke-dashoffset: 0; stroke-linejoin: miter; stroke-miterlimit: 4; fill: rgb(53,79,82); fill-rule: nonzero; opacity: 1;" vector-effect="non-scaling-stroke"  transform=" translate(-0.01, 0.02)" d="M 0 -0.03125 L 0.015625 -0.03125 L 0.015625 0 L 0 0 z" stroke-linecap="round" />
</g>
		<g transform="matrix(1.33 0 0 1.33 -364.51 310.21)"  >
<path style="stroke: none; stroke-width: 1; stroke-dasharray: none; stroke-linecap: butt; stroke-dashoffset: 0; stroke-linejoin: miter; stroke-miterlimit: 4; fill: rgb(53,79,82); fill-rule: nonzero; opacity: 1;" vector-effect="non-scaling-stroke"  transform=" translate(-0.02, 0.02)" d="M 0.03125 -0.015625 L 0.015625 -0.015625 L 0.015625 0 C 0.0234375 0 0.03125 -0.0039062 0.03125 -0.015625 L 0.03125 0 L 0.015625 0 L 0 0 L 0 -0.015625 L 0.015625 -0.03125 L 0.015625 -0.015625 L 0.03125 -0.015625 z" stroke-linecap="round" />
</g>
		<g transform="matrix(1.33 0 0 1.33 -364.46 310.21)"  >
<path style="stroke: none; stroke-width: 1; stroke-dasharray: none; stroke-linecap: butt; stroke-dashoffset: 0; stroke-linejoin: miter; stroke-miterlimit: 4; fill: rgb(53,79,82); fill-rule: nonzero; opacity: 1;" vector-effect="non-scaling-stroke"  transform=" translate(-0.02, 0.02)" d="M 0.03125 -0.015625 L 0.03125 0 L 0.015625 0 L 0.015625 -0.015625 L 0.015625 0 L 0 0 L 0 -0.03125 L 0.015625 -0.03125 L 0.015625 -0.015625 L 0.015625 -0.03125 C 0.0234375 -0.03125 0.03125 -0.0234375 0.03125 -0.015625 z" stroke-linecap="round" />
</g>
		<g transform="matrix(1.33 0 0 1.33 -364.42 310.21)"  >
<path style="stroke: none; stroke-width: 1; stroke-dasharray: none; stroke-linecap: butt; stroke-dashoffset: 0; stroke-linejoin: miter; stroke-miterlimit: 4; fill: rgb(53,79,82); fill-rule: nonzero; opacity: 1;" vector-effect="non-scaling-stroke"  transform=" translate(-0.02, 0.02)" d="M 0.015625 -0.015625 L 0.015625 0 L 0.015625 -0.015625 z M 0.03125 -0.015625 L 0.03125 0 L 0.015625 0 L 0 0 L 0 -0.015625 L 0.015625 -0.015625 L 0 -0.015625 L 0 -0.03125 L 0.015625 -0.03125 L 0.015625 -0.015625 L 0.03125 -0.015625 z" stroke-linecap="round" />
</g>
		<g transform="matrix(1.33 0 0 1.33 -364.36 310.21)"  >
<path style="stroke: none; stroke-width: 1; stroke-dasharray: none; stroke-linecap: butt; stroke-dashoffset: 0; stroke-linejoin: miter; stroke-miterlimit: 4; fill: rgb(53,79,82); fill-rule: nonzero; opacity: 1;" vector-effect="non-scaling-stroke"  transform=" translate(-0.02, 0.02)" d="M 0 -0.03125 L 0.015625 -0.03125 L 0.03125 -0.03125 L 0.03125 -0.015625 L 0.015625 -0.015625 L 0.015625 0 L 0 0 z M 0.015625 -0.03125 L 0.015625 -0.015625 L 0.015625 -0.03125 z" stroke-linecap="round" />
</g>
		<g transform="matrix(1.33 0 0 1.33 -364.31 310.21)"  >
<path style="stroke: none; stroke-width: 1; stroke-dasharray: none; stroke-linecap: butt; stroke-dashoffset: 0; stroke-linejoin: miter; stroke-miterlimit: 4; fill: rgb(53,79,82); fill-rule: nonzero; opacity: 1;" vector-effect="non-scaling-stroke"  transform=" translate(-0.02, 0.02)" d="M 0.015625 -0.015625 L 0.015625 0 L 0.015625 -0.015625 z M 0.03125 -0.015625 L 0.03125 0 L 0.015625 0 L 0 0 L 0 -0.015625 L 0.015625 -0.015625 L 0 -0.015625 L 0 -0.03125 L 0.015625 -0.03125 L 0.015625 -0.015625 L 0.03125 -0.015625 z" stroke-linecap="round" />
</g>
		<g transform="matrix(1.33 0 0 1.33 -364.27 310.21)"  >
<path style="stroke: none; stroke-width: 1; stroke-dasharray: none; stroke-linecap: butt; stroke-dashoffset: 0; stroke-linejoin: miter; stroke-miterlimit: 4; fill: rgb(53,79,82); fill-rule: nonzero; opacity: 1;" vector-effect="non-scaling-stroke"  transform=" translate(-0.02, 0.02)" d="M 0.03125 -0.015625 L 0.03125 0 L 0.015625 0 L 0.015625 -0.015625 L 0.015625 0 L 0 0 L 0 -0.03125 L 0.015625 -0.03125 L 0.015625 -0.015625 L 0.015625 -0.03125 C 0.0234375 -0.03125 0.03125 -0.0234375 0.03125 -0.015625 z" stroke-linecap="round" />
</g>
		<g transform="matrix(1.33 0 0 1.33 -364.22 310.21)"  >
<path style="stroke: none; stroke-width: 1; stroke-dasharray: none; stroke-linecap: butt; stroke-dashoffset: 0; stroke-linejoin: miter; stroke-miterlimit: 4; fill: rgb(53,79,82); fill-rule: nonzero; opacity: 1;" vector-effect="non-scaling-stroke"  transform=" translate(-0.02, 0.02)" d="M 0.015625 -0.015625 L 0.015625 0 L 0.015625 -0.015625 z M 0.03125 -0.015625 L 0.03125 0 L 0.015625 0 L 0 0 L 0 -0.015625 L 0.015625 -0.015625 L 0 -0.015625 L 0 -0.03125 L 0.015625 -0.03125 L 0.015625 -0.015625 L 0.03125 -0.015625 z" stroke-linecap="round" />
</g>
		<g transform="matrix(1.33 0 0 1.33 -364.18 310.21)"  >
<path style="stroke: none; stroke-width: 1; stroke-dasharray: none; stroke-linecap: butt; stroke-dashoffset: 0; stroke-linejoin: miter; stroke-miterlimit: 4; fill: rgb(53,79,82); fill-rule: nonzero; opacity: 1;" vector-effect="non-scaling-stroke"  transform=" translate(-0.02, 0.02)" d="M 0.03125 -0.03125 L 0.03125 -0.015625 L 0.015625 -0.015625 C 0.0234375 -0.015625 0.03125 -0.0078125 0.03125 0 L 0.015625 0 L 0 0 L 0.015625 0 L 0.015625 -0.015625 L 0 -0.015625 L 0.015625 -0.03125 L 0.03125 -0.03125 z" stroke-linecap="round" />
</g>
		<g transform="matrix(1.33 0 0 1.33 -364.15 310.21)"  >
<path style="stroke: none; stroke-width: 1; stroke-dasharray: none; stroke-linecap: butt; stroke-dashoffset: 0; stroke-linejoin: miter; stroke-miterlimit: 4; fill: rgb(53,79,82); fill-rule: nonzero; opacity: 1;" vector-effect="non-scaling-stroke"  transform=" translate(-0.02, 0.02)" d="M 0.015625 -0.015625 L 0.015625 0 L 0.015625 -0.015625 z M 0.015625 -0.03125 L 0.015625 -0.015625 L 0.03125 -0.015625 C 0.03125 -0.0039059999999999997 0.0234375 0 0.015625 0 L 0 0 L 0 -0.015625 L 0.015625 -0.03125 z" stroke-linecap="round" />
</g>
		<g transform="matrix(1.33 0 0 1.33 -364.1 310.21)"  >
<path style="stroke: none; stroke-width: 1; stroke-dasharray: none; stroke-linecap: butt; stroke-dashoffset: 0; stroke-linejoin: miter; stroke-miterlimit: 4; fill: rgb(53,79,82); fill-rule: nonzero; opacity: 1;" vector-effect="non-scaling-stroke"  transform=" translate(-0.02, 0.02)" d="M 0 -0.03125 L 0.015625 -0.03125 L 0.015625 -0.015625 L 0.015625 -0.03125 L 0.03125 -0.03125 L 0.015625 0 z" stroke-linecap="round" />
</g>
		<g transform="matrix(1.33 0 0 1.33 -364.06 310.21)"  >
<path style="stroke: none; stroke-width: 1; stroke-dasharray: none; stroke-linecap: butt; stroke-dashoffset: 0; stroke-linejoin: miter; stroke-miterlimit: 4; fill: rgb(53,79,82); fill-rule: nonzero; opacity: 1;" vector-effect="non-scaling-stroke"  transform=" translate(-0.02, 0.02)" d="M 0.03125 -0.03125 L 0.03125 -0.015625 L 0.015625 -0.015625 C 0.0234375 -0.015625 0.03125 -0.0078125 0.03125 0 L 0.015625 0 L 0 0 L 0.015625 0 L 0.015625 -0.015625 L 0 -0.015625 L 0.015625 -0.03125 L 0.03125 -0.03125 z" stroke-linecap="round" />
</g>
		<g transform="matrix(1.33 0 0 1.33 -364.02 310.21)"  >
<path style="stroke: none; stroke-width: 1; stroke-dasharray: none; stroke-linecap: butt; stroke-dashoffset: 0; stroke-linejoin: miter; stroke-miterlimit: 4; fill: rgb(53,79,82); fill-rule: nonzero; opacity: 1;" vector-effect="non-scaling-stroke"  transform=" translate(-0.02, 0.02)" d="M 0 -0.03125 L 0.015625 -0.03125 L 0.015625 -0.015625 L 0.015625 -0.03125 L 0.03125 -0.03125 L 0.015625 -0.015625 L 0.03125 0 L 0.015625 0 L 0.015625 -0.015625 L 0.015625 0 L 0 0 z" stroke-linecap="round" />
</g>
		<g transform="matrix(1.33 0 0 1.33 -363.99 310.21)"  >
<path style="stroke: none; stroke-width: 1; stroke-dasharray: none; stroke-linecap: butt; stroke-dashoffset: 0; stroke-linejoin: miter; stroke-miterlimit: 4; fill: rgb(53,79,82); fill-rule: nonzero; opacity: 1;" vector-effect="non-scaling-stroke"  transform=" translate(-0.02, 0.02)" d="M 0.015625 -0.015625 L 0.015625 0 L 0.015625 -0.015625 z M 0.03125 -0.015625 L 0.03125 0 L 0.015625 0 L 0 0 L 0 -0.015625 L 0.015625 -0.015625 L 0 -0.015625 L 0 -0.03125 L 0.015625 -0.03125 L 0.015625 -0.015625 L 0.03125 -0.015625 z" stroke-linecap="round" />
</g>
		<g transform="matrix(1.33 0 0 1.33 -365 310.27)"  >
<path style="stroke: none; stroke-width: 1; stroke-dasharray: none; stroke-linecap: butt; stroke-dashoffset: 0; stroke-linejoin: miter; stroke-miterlimit: 4; fill: rgb(53,79,82); fill-rule: nonzero; opacity: 1;" vector-effect="non-scaling-stroke"  transform=" translate(-0.01, 0.02)" d="M 0.015625 -0.03125 L 0.015625 0 L 0 0 L 0 -0.03125 L 0.015625 -0.03125 z" stroke-linecap="round" />
</g>
		<g transform="matrix(1.33 0 0 1.33 -364.97 310.27)"  >
<path style="stroke: none; stroke-width: 1; stroke-dasharray: none; stroke-linecap: butt; stroke-dashoffset: 0; stroke-linejoin: miter; stroke-miterlimit: 4; fill: rgb(53,79,82); fill-rule: nonzero; opacity: 1;" vector-effect="non-scaling-stroke"  transform=" translate(-0.01, 0.02)" d="M 0.015625 -0.015625 L 0.015625 0 L 0 0 L 0 -0.03125 L 0.015625 -0.03125 L 0.015625 -0.015625 L 0.015625 -0.03125 z" stroke-linecap="round" />
</g>
		<g transform="matrix(1.33 0 0 1.33 -364.93 310.27)"  >
<path style="stroke: none; stroke-width: 1; stroke-dasharray: none; stroke-linecap: butt; stroke-dashoffset: 0; stroke-linejoin: miter; stroke-miterlimit: 4; fill: rgb(53,79,82); fill-rule: nonzero; opacity: 1;" vector-effect="non-scaling-stroke"  transform=" translate(-0.02, 0.02)" d="M 0.015625 -0.015625 L 0.015625 0 L 0.015625 -0.015625 z M 0.015625 -0.03125 L 0.015625 -0.015625 L 0.03125 -0.015625 C 0.03125 -0.0039059999999999997 0.0234375 0 0.015625 0 L 0 0 L 0 -0.015625 L 0.015625 -0.03125 z" stroke-linecap="round" />
</g>
		<g transform="matrix(1.33 0 0 1.33 -364.88 310.27)"  >
<path style="stroke: none; stroke-width: 1; stroke-dasharray: none; stroke-linecap: butt; stroke-dashoffset: 0; stroke-linejoin: miter; stroke-miterlimit: 4; fill: rgb(53,79,82); fill-rule: nonzero; opacity: 1;" vector-effect="non-scaling-stroke"  transform=" translate(-0.02, 0.02)" d="M 0.03125 -0.015625 L 0.03125 -0.03125 C 0.0390625 -0.03125 0.046875 -0.0234375 0.046875 -0.015625 L 0.046875 0 L 0.03125 0 L 0.03125 -0.015625 L 0.03125 0 L 0.015625 0 L 0.015625 -0.015625 L 0.015625 0 L 0 0 L 0 -0.03125 L 0.015625 -0.03125 L 0.015625 -0.015625 L 0.015625 -0.03125 L 0.015625 -0.015625 L 0.03125 -0.015625 z" stroke-linecap="round" />
</g>
		<g transform="matrix(1.33 0 0 1.33 -364.81 310.27)"  >
<path style="stroke: none; stroke-width: 1; stroke-dasharray: none; stroke-linecap: butt; stroke-dashoffset: 0; stroke-linejoin: miter; stroke-miterlimit: 4; fill: rgb(53,79,82); fill-rule: nonzero; opacity: 1;" vector-effect="non-scaling-stroke"  transform=" translate(-0.01, 0.02)" d="M 0.015625 -0.03125 L 0.015625 -0.015625 L 0.015625 0 L 0 0 L 0 -0.015625 L 0 -0.03125 z" stroke-linecap="round" />
</g>
		<g transform="matrix(1.33 0 0 1.33 -364.77 310.27)"  >
<path style="stroke: none; stroke-width: 1; stroke-dasharray: none; stroke-linecap: butt; stroke-dashoffset: 0; stroke-linejoin: miter; stroke-miterlimit: 4; fill: rgb(53,79,82); fill-rule: nonzero; opacity: 1;" vector-effect="non-scaling-stroke"  transform=" translate(-0.02, 0.02)" d="M 0.03125 -0.015625 L 0.03125 0 L 0.015625 0 L 0.015625 -0.015625 L 0.015625 0 L 0 0 L 0 -0.03125 L 0.015625 -0.03125 L 0.015625 -0.015625 L 0.015625 -0.03125 C 0.0234375 -0.03125 0.03125 -0.0234375 0.03125 -0.015625 z" stroke-linecap="round" />
</g>
		<g transform="matrix(1.33 0 0 1.33 -364.72 310.27)"  >
<path style="stroke: none; stroke-width: 1; stroke-dasharray: none; stroke-linecap: butt; stroke-dashoffset: 0; stroke-linejoin: miter; stroke-miterlimit: 4; fill: rgb(53,79,82); fill-rule: nonzero; opacity: 1;" vector-effect="non-scaling-stroke"  transform=" translate(-0.02, 0.02)" d="M 0.03125 -0.015625 L 0.015625 -0.015625 L 0.015625 0 C 0.0234375 0 0.03125 -0.0039062 0.03125 -0.015625 L 0.03125 0 L 0.015625 0 L 0 0 L 0 -0.015625 L 0.015625 -0.03125 L 0.015625 -0.015625 L 0.03125 -0.015625 z" stroke-linecap="round" />
</g>
		<g transform="matrix(1.33 0 0 1.33 -364.66 310.27)"  >
<path style="stroke: none; stroke-width: 1; stroke-dasharray: none; stroke-linecap: butt; stroke-dashoffset: 0; stroke-linejoin: miter; stroke-miterlimit: 4; fill: rgb(53,79,82); fill-rule: nonzero; opacity: 1;" vector-effect="non-scaling-stroke"  transform=" translate(-0.02, 0.02)" d="M 0 -0.03125 L 0.015625 -0.03125 L 0.03125 -0.015625 L 0.03125 -0.03125 L 0.03125 0 L 0.015625 -0.015625 L 0.015625 0 L 0 0 z" stroke-linecap="round" />
</g>
		<g transform="matrix(1.33 0 0 1.33 -364.61 310.27)"  >
<path style="stroke: none; stroke-width: 1; stroke-dasharray: none; stroke-linecap: butt; stroke-dashoffset: 0; stroke-linejoin: miter; stroke-miterlimit: 4; fill: rgb(53,79,82); fill-rule: nonzero; opacity: 1;" vector-effect="non-scaling-stroke"  transform=" translate(-0.02, 0.02)" d="M 0.015625 -0.015625 L 0.015625 0 L 0.015625 -0.015625 z M 0.015625 -0.03125 L 0.015625 -0.015625 L 0.03125 -0.015625 C 0.03125 -0.0039059999999999997 0.0234375 0 0.015625 0 L 0 0 L 0 -0.015625 L 0.015625 -0.03125 z" stroke-linecap="round" />
</g>
		<g transform="matrix(1.33 0 0 1.33 -364.56 310.27)"  >
<path style="stroke: none; stroke-width: 1; stroke-dasharray: none; stroke-linecap: butt; stroke-dashoffset: 0; stroke-linejoin: miter; stroke-miterlimit: 4; fill: rgb(53,79,82); fill-rule: nonzero; opacity: 1;" vector-effect="non-scaling-stroke"  transform=" translate(-0.02, 0.02)" d="M 0 -0.015625 L 0 -0.03125 L 0.015625 -0.03125 L 0.015625 -0.015625 L 0.015625 0 L 0.015625 -0.015625 L 0.015625 -0.03125 L 0.03125 -0.03125 L 0.03125 0 L 0.015625 0 L 0 0 L 0 -0.015625 z" stroke-linecap="round" />
</g>
		<g transform="matrix(1.33 0 0 1.33 -364.52 310.27)"  >
<path style="stroke: none; stroke-width: 1; stroke-dasharray: none; stroke-linecap: butt; stroke-dashoffset: 0; stroke-linejoin: miter; stroke-miterlimit: 4; fill: rgb(53,79,82); fill-rule: nonzero; opacity: 1;" vector-effect="non-scaling-stroke"  transform=" translate(-0.02, 0.02)" d="M 0.03125 -0.015625 L 0.03125 0 L 0.015625 0 L 0.015625 -0.015625 L 0.015625 0 L 0 0 L 0 -0.03125 L 0.015625 -0.03125 L 0.015625 -0.015625 L 0.015625 -0.03125 C 0.0234375 -0.03125 0.03125 -0.0234375 0.03125 -0.015625 z" stroke-linecap="round" />
</g>
		<g transform="matrix(1.33 0 0 1.33 -364.45 310.27)"  >
<path style="stroke: none; stroke-width: 1; stroke-dasharray: none; stroke-linecap: butt; stroke-dashoffset: 0; stroke-linejoin: miter; stroke-miterlimit: 4; fill: rgb(53,79,82); fill-rule: nonzero; opacity: 1;" vector-effect="non-scaling-stroke"  transform=" translate(-0.02, 0.02)" d="M 0 -0.03125 L 0.015625 -0.03125 L 0.03125 -0.03125 L 0.03125 -0.015625 L 0.015625 -0.015625 L 0.015625 0 L 0 0 z M 0.015625 -0.03125 L 0.015625 -0.015625 L 0.015625 -0.03125 z" stroke-linecap="round" />
</g>
		<g transform="matrix(1.33 0 0 1.33 -364.42 310.27)"  >
<path style="stroke: none; stroke-width: 1; stroke-dasharray: none; stroke-linecap: butt; stroke-dashoffset: 0; stroke-linejoin: miter; stroke-miterlimit: 4; fill: rgb(53,79,82); fill-rule: nonzero; opacity: 1;" vector-effect="non-scaling-stroke"  transform=" translate(-0.01, 0.02)" d="M 0.015625 -0.015625 L 0.015625 0 L 0 0 L 0 -0.03125 L 0.015625 -0.03125 L 0.015625 -0.015625 L 0.015625 -0.03125 z" stroke-linecap="round" />
</g>
		<g transform="matrix(1.33 0 0 1.33 -364.38 310.27)"  >
<path style="stroke: none; stroke-width: 1; stroke-dasharray: none; stroke-linecap: butt; stroke-dashoffset: 0; stroke-linejoin: miter; stroke-miterlimit: 4; fill: rgb(53,79,82); fill-rule: nonzero; opacity: 1;" vector-effect="non-scaling-stroke"  transform=" translate(-0.02, 0.02)" d="M 0.015625 -0.015625 L 0.015625 0 L 0.015625 -0.015625 z M 0.015625 -0.03125 L 0.015625 -0.015625 L 0.03125 -0.015625 C 0.03125 -0.0039059999999999997 0.0234375 0 0.015625 0 L 0 0 L 0 -0.015625 L 0.015625 -0.03125 z" stroke-linecap="round" />
</g>
		<g transform="matrix(1.33 0 0 1.33 -364.34 310.28)"  >
<path style="stroke: none; stroke-width: 1; stroke-dasharray: none; stroke-linecap: butt; stroke-dashoffset: 0; stroke-linejoin: miter; stroke-miterlimit: 4; fill: rgb(53,79,82); fill-rule: nonzero; opacity: 1;" vector-effect="non-scaling-stroke"  transform=" translate(-0.01, 0.01)" d="M 0 -0.03125 L 0.015625 -0.03125 L 0.015625 0 L 0 0 L 0 0.015625 z M 0 -0.03125 L 0.015625 -0.03125 z" stroke-linecap="round" />
</g>
		<g transform="matrix(1.33 0 0 1.33 -364.31 310.27)"  >
<path style="stroke: none; stroke-width: 1; stroke-dasharray: none; stroke-linecap: butt; stroke-dashoffset: 0; stroke-linejoin: miter; stroke-miterlimit: 4; fill: rgb(53,79,82); fill-rule: nonzero; opacity: 1;" vector-effect="non-scaling-stroke"  transform=" translate(-0.02, 0.02)" d="M 0.03125 -0.015625 L 0.015625 -0.015625 L 0.015625 0 C 0.0234375 0 0.03125 -0.0039062 0.03125 -0.015625 L 0.03125 0 L 0.015625 0 L 0 0 L 0 -0.015625 L 0.015625 -0.03125 L 0.015625 -0.015625 L 0.03125 -0.015625 z" stroke-linecap="round" />
</g>
		<g transform="matrix(1.33 0 0 1.33 -364.27 310.27)"  >
<path style="stroke: none; stroke-width: 1; stroke-dasharray: none; stroke-linecap: butt; stroke-dashoffset: 0; stroke-linejoin: miter; stroke-miterlimit: 4; fill: rgb(53,79,82); fill-rule: nonzero; opacity: 1;" vector-effect="non-scaling-stroke"  transform=" translate(-0.02, 0.02)" d="M 0.03125 -0.03125 L 0.03125 -0.015625 L 0.015625 -0.015625 L 0.015625 0 L 0.03125 0 L 0.015625 0 L 0 0 L 0 -0.015625 L 0.015625 -0.03125 L 0.03125 -0.03125 z" stroke-linecap="round" />
</g>
		<g transform="matrix(1.33 0 0 1.33 -364.25 310.27)"  >
<path style="stroke: none; stroke-width: 1; stroke-dasharray: none; stroke-linecap: butt; stroke-dashoffset: 0; stroke-linejoin: miter; stroke-miterlimit: 4; fill: rgb(53,79,82); fill-rule: nonzero; opacity: 1;" vector-effect="non-scaling-stroke"  transform=" translate(-0.01, 0.02)" d="M 0.015625 -0.03125 L 0.015625 -0.015625 L 0.015625 0 L 0 0 L 0 -0.015625 L 0 -0.03125 z" stroke-linecap="round" />
</g>
</g>
</g>
<g transform="matrix(0 0 0 0 0 0)"  >
<g style=""   >
</g>
</g>
</svg>